<?xml version="1.0" encoding="UTF-8" standalone="no"?>
<!-- Created with Inkscape (http://www.inkscape.org/) -->

<svg
   xmlns:dc="http://purl.org/dc/elements/1.1/"
   xmlns:cc="http://creativecommons.org/ns#"
   xmlns:rdf="http://www.w3.org/1999/02/22-rdf-syntax-ns#"
   xmlns:svg="http://www.w3.org/2000/svg"
   xmlns="http://www.w3.org/2000/svg"
   xmlns:sodipodi="http://sodipodi.sourceforge.net/DTD/sodipodi-0.dtd"
   xmlns:inkscape="http://www.inkscape.org/namespaces/inkscape"
   version="1.1"
   id="svg2"
   width="709.61133"
   height="133.51469"
   viewBox="0 0 709.61132 133.5147"
   sodipodi:docname="e-intelligent.svg"
   inkscape:version="0.92.4 (5da689c313, 2019-01-14)">
  <metadata
     id="metadata8">
    <rdf:RDF>
      <cc:Work
         rdf:about="">
        <dc:format>image/svg+xml</dc:format>
        <dc:type
           rdf:resource="http://purl.org/dc/dcmitype/StillImage" />
        <dc:title></dc:title>
      </cc:Work>
    </rdf:RDF>
  </metadata>
  <defs
     id="defs6" />
  <sodipodi:namedview
     pagecolor="#ffffff"
     bordercolor="#666666"
     borderopacity="1"
     objecttolerance="10"
     gridtolerance="10"
     guidetolerance="10"
     inkscape:pageopacity="0"
     inkscape:pageshadow="2"
     inkscape:window-width="3840"
     inkscape:window-height="2050"
     id="namedview4"
     showgrid="false"
     inkscape:zoom="4"
     inkscape:cx="15.11066"
     inkscape:cy="11.201745"
     inkscape:window-x="-12"
     inkscape:window-y="-12"
     inkscape:window-maximized="1"
     inkscape:current-layer="g12"
     fit-margin-top="0"
     fit-margin-left="0"
     fit-margin-right="0"
     fit-margin-bottom="0" />
  <g
     id="g12"
     transform="matrix(0.125,0,0,0.125,-26.07774,-68.268551)">
    <path
       inkscape:connector-curvature="0"
       d="m 366.36044,1402.4988 c -57.0672,-12.2565 -110.02504,-52.1537 -133.81197,-100.8108 -23.44146,-47.9503 -23.92655,-52.2299 -23.92655,-211.0873 0,-125.4821 0.71954,-145.27923 6.03342,-165.9999 15.08902,-58.83724 51.82716,-104.76585 104.21393,-130.28414 65.85125,-32.07703 154.71869,-32.06828 220.49471,0.0204 37.7701,18.42684 75.2139,54.745 91.24597,88.50298 17.75511,37.38603 20.57266,58.45518 20.63861,154.33186 l 0.0589,85.6551 H 498.31522 345.323 l 1.35544,56.8197 c 1.46822,61.5468 4.65749,74.9791 22.13502,93.2261 18.37301,19.1818 65.56206,27.4071 96.3184,16.7887 25.64146,-8.8525 47.09431,-41.8638 47.09431,-72.4679 v -9.561 h 69.54064 69.54064 v 8.1058 c 0,21.6845 -11.67869,67.0649 -23.69213,92.0616 -23.96584,49.8665 -70.22743,83.6271 -130.10453,94.9473 -33.02973,6.2445 -101.52322,6.1148 -131.15035,-0.2483 z M 512.22617,980.96905 c 0,-64.64854 -26.52277,-95.63635 -81.807,-95.57909 -25.33535,0.0271 -41.78042,5.28268 -56.2367,17.9753 -18.05852,15.8554 -25.51558,35.60176 -27.45631,72.7047 l -1.64353,31.42124 h 83.57177 83.57177 z m 261.20142,107.93555 v -61.0601 h 135.68905 135.68906 v 61.0601 61.0601 H 909.11664 773.42759 Z"
       style="display:inline;fill:#fc6200;fill-opacity:1;stroke-width:3.39222622"
       id="path826"
       sodipodi:nodetypes="ccssscsscccscsscccsssccscsscccsccccccccc" />
    <path
       style="display:inline;fill:#300063;fill-opacity:1;stroke-width:3.39222622"
       d="m 4041.6666,1609.7427 c -90.9038,-16.5134 -138.0205,-51.7776 -138.413,-103.5943 -0.2374,-31.4897 16.0744,-54.0166 60.4549,-83.4835 10.3209,-6.8527 18.7652,-13.0192 18.7652,-13.7035 0,-0.6843 -9.7893,-10.8425 -21.7537,-22.5737 -18.0314,-17.68 -22.7374,-24.7135 -27.5028,-41.1064 -6.831,-23.4976 -4.8472,-41.6612 6.7027,-61.3713 9.1597,-15.6306 37.6469,-43.5514 58.5471,-57.3825 l 14.2928,-9.4584 -13.593,-11.3567 c -54.7224,-45.7193 -82.6258,-128.7926 -76.2654,-227.05515 8.7774,-135.59759 69.2655,-201.56798 190.4189,-207.6769 63.881,-3.22106 116.561,13.89876 154.6533,50.25888 l 19.2105,18.33675 22.635,-22.86293 c 25.535,-25.79215 55.7329,-42.37108 83.0763,-45.6095 l 16.9988,-2.01322 v 62.81447 62.81446 l -22.4355,-4.70285 c -20.7706,-4.35389 -24.1809,-4.18295 -45.962,2.3038 -18.799,5.59853 -23.1974,8.16071 -21.887,12.74954 10.3931,36.39669 13.9322,67.49038 13.5876,119.38255 -0.3019,45.6095 -1.705,60.8966 -7.5735,82.5734 -14.0204,51.7882 -40.1711,91.7205 -74.4845,113.7395 -37.3518,23.9686 -95.8188,35.1224 -146.5041,27.9487 l -30.2122,-4.2761 -10.1557,11.2794 c -14.3728,15.9634 -16.1921,25.854 -6.5229,35.4667 11.8694,11.8005 41.9229,17.5257 112.9978,21.5261 103.0837,5.8021 144.1466,14.4931 179.6805,38.0296 34.7367,23.0087 50.94,57.8772 50.9709,109.6851 0.034,31.5821 -0.7694,35.5972 -11.1085,56.5987 -24.4393,49.6436 -82.5322,81.4384 -172.0517,94.1658 -33.3463,4.741 -147.6609,3.8045 -176.5668,-1.4465 z m 198.8686,-101.0082 c 20.1288,-9.8854 28.0161,-20.1085 28.0161,-36.3129 0,-12.3926 -6.2068,-20.1767 -21.0284,-26.3721 -15.3787,-6.4282 -180.5292,-21.7064 -186.0809,-17.2144 -2.2779,1.843 -8.7655,10.3318 -14.417,18.8642 -19.8394,29.952 -11.0885,51.1015 26.0855,63.0444 25.0337,8.0426 29.2878,8.409 90.8473,7.8248 55.433,-0.5261 58.4005,-0.9072 76.5774,-9.834 z M 4167.35,1125.0807 c 18.0619,-9.7734 27.4346,-29.4934 32.5107,-68.4022 7.4436,-57.05689 -0.1153,-117.42318 -18.0897,-144.46947 -16.1504,-24.30099 -53.7362,-33.48123 -82.8894,-20.24534 -29.0809,13.20325 -41.6182,49.6535 -41.7199,121.29691 -0.1052,74.5781 12.1065,105.7606 46.3595,118.3685 16.7725,6.1737 45.8259,3.193 63.8288,-6.5484 z m -1984.7974,282.5668 c -50.4076,-6.2452 -87.4422,-29.5289 -103.5053,-65.0742 l -8.0932,-17.909 -0.951,-200.9894 -0.951,-200.98938 h -28.813 -28.813 l 0.9301,-56.81979 0.9301,-56.81979 27.9859,-0.98524 27.9858,-0.98524 V 724.1031 641.13075 h 69.5407 69.5406 v 83.01106 83.0111 l 44.947,0.9465 44.947,0.94653 0.9301,56.81979 0.9301,56.81979 h -45.9695 -45.9694 l 0.9404,167.56148 c 0.9094,162.0416 1.1637,167.8081 7.7169,175.047 11.5065,12.7104 25.5946,17.7273 54.9175,19.5567 l 28.2,1.7593 v 58.5083 58.5083 l -11.0247,1.876 c -22.4284,3.8164 -83,5.038 -106.3521,2.1449 z m 391.057,0.083 c -93.4572,-11.4495 -161.1067,-70.5116 -180.4742,-157.565 -4.6042,-20.6951 -5.2325,-46.1939 -4.2292,-171.6524 1.1481,-143.58572 1.3774,-147.90952 8.9837,-169.39619 17.1714,-48.5072 50.953,-89.84365 90.6065,-110.86958 38.9502,-20.65306 65.2856,-26.46042 120.1256,-26.48949 54.844,-0.0305 80.7644,5.69032 120.424,26.57195 30.2446,15.92437 65.7729,52.64447 81.0515,83.77021 18.2999,37.28108 22.1533,64.96463 22.2931,160.1618 l 0.1183,80.5654 h -152.6501 -152.6502 v 51.0773 c 0,58.6111 3.2094,75.3365 17.8688,93.121 15.2543,18.506 32.6504,25.2491 65.37,25.3385 21.6458,0.059 30.3781,-1.499 42.3575,-7.558 21.467,-10.8578 33.9104,-30.1662 36.2797,-56.2954 l 1.8931,-20.8778 h 70.8825 70.8824 l -2.1043,17.8092 c -6.5175,55.1571 -28.1843,104.0572 -58.3334,131.6531 -23.2099,21.2445 -58.3106,38.7579 -90.8694,45.3392 -31.7313,6.414 -79.5358,8.7621 -107.8259,5.2962 z m 116.4069,-429.92101 c -0.024,-37.47901 -4.1396,-52.19761 -19.2833,-68.95978 -15.3334,-16.97233 -40.4733,-25.05495 -70.4465,-22.64898 -50.2865,4.03651 -73.0781,33.5691 -73.0781,94.69206 v 26.59871 h 81.4134 81.4134 l -0.02,-29.68201 z M 4689.53,1407.6382 c -49.5852,-6.1057 -105.0207,-33.882 -133.8325,-67.0578 -16.126,-18.5684 -37.9733,-62.1519 -44.5376,-88.8489 -3.4902,-14.1958 -4.5873,-53.1322 -4.5873,-162.8269 0,-127.30865 0.7002,-146.70371 5.9856,-165.83736 10.7327,-38.85137 25.3555,-64.56946 51.7816,-91.07099 40.6291,-40.74538 96.1961,-61.96091 162.2862,-61.96091 69.8476,0 125.3278,21.3907 168.0509,64.79301 20.7112,21.04056 31.9442,39.03883 43.9944,70.49043 8.3544,21.8053 8.6397,25.27615 9.867,119.94642 l 1.2636,97.4914 -152.0738,0.8832 -152.0742,0.8832 -0.9743,39.0106 c -1.7174,68.7896 6.6288,98.4399 32.9436,117.0318 12.7572,9.0131 17.6986,10.3147 43.2157,11.3837 33.831,1.4175 52.7243,-4.2886 68.8659,-20.7986 10.6736,-10.9171 20.4721,-36.7425 20.4721,-53.957 v -9.561 h 69.5406 69.5406 v 11.651 c 0,22.1544 -10.3551,61.388 -23.448,88.8406 -30.144,63.2033 -88.0341,95.8709 -178.3894,100.6654 -18.6573,0.99 -44.7082,0.472 -57.8907,-1.1513 z m 120.6469,-426.74571 c 0,-61.12296 -22.7917,-90.65555 -73.0781,-94.69206 -40.2477,-3.23072 -71.5624,13.01699 -84.3969,43.7896 -2.843,6.81607 -6.1986,27.04222 -7.4571,44.947 l -2.2884,32.55417 h 83.6102 83.6103 z m 959.3901,426.68431 c -64.9547,-8.9214 -101.818,-39.877 -111.1239,-93.3153 -2.245,-12.8903 -3.6019,-90.553 -3.6019,-206.1295 V 922.68552 h -27.1378 -27.1378 v -57.66785 -57.66784 h 27.1378 27.1378 v -83.10954 -83.10954 h 71.2368 71.2367 v 83.10954 83.10954 h 44.099 44.0989 v 57.66784 57.66785 h -44.0989 -44.099 v 166.33838 c 0,148.8031 0.5896,167.2382 5.5921,174.8731 8.6848,13.2545 23.7018,19.0382 54.4059,20.9537 l 28.1999,1.7593 v 58.6163 58.6163 l -9.3286,1.8323 c -19.0467,3.741 -84.6998,4.9122 -106.617,1.9019 z M 1194.0636,1088.9046 V 780.21202 h 69.5407 69.5406 v 308.69258 308.6926 h -69.5406 -69.5407 z m 308.6926,-0.072 V 780.06873 l 66.9965,0.91977 66.9965,0.91977 1.6961,32.84072 1.6961,32.84071 28.8339,-22.18699 c 32.8511,-25.27802 71.2701,-45.64545 98.006,-51.95672 25.5294,-6.0265 63.598,-2.63709 85.9885,7.65591 25.0436,11.51267 37.0831,22.75058 49.6667,46.35993 20.4704,38.40631 20.632,40.89213 20.6969,318.26267 l 0.059,251.8727 h -69.4328 -69.4328 l -0.9559,-241.6961 c -0.9282,-234.68866 -1.1526,-242.03008 -7.7403,-253.21435 -10.5693,-17.94383 -22.903,-25.40489 -41.9963,-25.40489 -18.5555,0 -39.825,11.08366 -73.2653,38.17889 l -18.7314,15.17723 v 233.47962 233.4796 h -69.5406 -69.5407 V 1088.8329 Z M 2988.5514,988.83393 V 580.07067 h 69.5406 69.5406 v 408.76326 408.76327 h -69.5406 -69.5406 z m 325.6537,0 V 580.07067 h 69.5406 69.5407 v 408.76326 408.76327 h -69.5407 -69.5406 z m 323.0915,100.91877 0.8661,-307.84457 h 69.5406 69.5407 l 0.866,307.84457 0.866,307.8445 h -71.2727 -71.2727 z m 1451.0428,-0.8481 V 780.21202 h 67.8445 67.8446 v 33.92226 c 0,18.65724 0.7554,33.92226 1.6791,33.92226 0.9234,0 11.2273,-7.76273 22.8975,-17.25055 29.987,-24.37925 68.1818,-46.21583 95.4139,-54.54934 18.5683,-5.68225 28.5774,-6.74453 49.1873,-5.22026 60.9885,4.51057 93.2672,31.47721 111.4112,93.07624 5.1487,17.48065 5.8865,46.9057 6.9327,276.52337 l 1.1703,256.9612 h -71.4132 -71.4131 v -239.0833 c 0,-212.09437 -0.6181,-240.62774 -5.474,-252.76461 -9.0888,-22.7151 -31.3038,-33.70123 -55.1583,-27.27788 -15.1565,4.08119 -48.2894,24.86807 -67.9504,42.63058 l -13.8908,12.54964 v 231.97277 231.9728 h -69.5406 -69.5407 z M 1194.0636,610.60071 v -64.4523 h 69.5407 69.5406 v 64.4523 64.4523 h -69.5406 -69.5407 z m 2442.403,0 v -64.4523 h 71.2367 71.2368 v 64.4523 64.4523 h -71.2368 -71.2367 z"
       id="path18"
       inkscape:connector-curvature="0"
       sodipodi:nodetypes="sccscccccccsccsccccccccccccccccccsssscccsssccccccccccccccccccccccccccccccsccccccccsccscccscccscccccccccscccssccccccccsccsccccccccccscccscscsscccccsscscccccccccccccccccccscsccccscccccccccccccccccscscccscssccccccccccccccccccccccccccccccccccccccssssscccccsccccccccccccccccccccccccccc" />
  </g>
  <g
     inkscape:groupmode="layer"
     id="layer1"
     inkscape:label="Layer 1"
     style="display:inline" />
</svg>
